# xmcd
#
# Track frame offsets: 
#        150
#        9740
#        21669
#        33304
#        46883
#        60096
#        72265
#        82752
#        94112
#        103826
#        113037
#        123137
#        134647
#        148522
#        158841
#        167211
#        177886
#        189807
#        202894
#        212496
#        225646
#        236931
#        246535
#        257358
#
# Disc length: 3584 seconds
#
# Revision: 7
# Processed by: cddbd v1.5.1PL2 Copyright (c) Steve Scherf et al.
# Submitted via: ExactAudioCopy v0.95b4
#
DISCID=420dfe18
DTITLE=Glen Campbell - The Capitol Years 65-77 Cd 1
DYEAR=1998
DGENRE=Country
TTITLE0=Universal Soldier
TTITLE1=Guess I'm Dumb
TTITLE2=Less Of Me
TTITLE3=Mary In The Morning
TTITLE4=Gentle On My Mind
TTITLE5=By The Time I Get To Phoenix
TTITLE6=They'll Never Take Her Love Away Frome Me
TTITLE7=Hey Little One
TTITLE8=Just Another Man
TTITLE9=It's Over
TTITLE10=Without Her
TTITLE11=Dreams Of The Everyday Housewife
TTITLE12=Wichita Lineman
TTITLE13=You're Young And You'll Forget
TTITLE14=Every Time I Itch I Wind Up Scratching You
TTITLE15=Reason To Believe
TTITLE16=Galveston
TTITLE17=Where's The Playground Susie
TTITLE18=Got To Have Tenderness
TTITLE19=Mornin' Glory (Bobby Gentry)
TTITLE20=True Grit
TTITLE21=If This Is Love
TTITLE22=Try A Little Kindness
TTITLE23=All I Have To Do Is Dream (Bobby Gentry)
EXTD=YEAR: 1998
EXTT0=
EXTT1=
EXTT2=
EXTT3=
EXTT4=
EXTT5=
EXTT6=
EXTT7=
EXTT8=
EXTT9=
EXTT10=
EXTT11=
EXTT12=
EXTT13=
EXTT14=
EXTT15=
EXTT16=
EXTT17=
EXTT18=
EXTT19=
EXTT20=
EXTT21=
EXTT22=
EXTT23=
PLAYORDER=
